# xmcd
#
# Track frame offsets: 
#        150
#        26754
#        63555
#        149368
#        178896
#
# Disc length: 2427 seconds
#
# Revision: 0
# Processed by: cddbd v1.5.2PL0 Copyright (c) Steve Scherf et al.
# Submitted via: ExactAudioCopyFreeDBPlugin 1.0
#
DISCID=49097905
DTITLE=John Lee Hooker and Santana - 1985 - The Stone Cd 2
DYEAR=1985
DGENRE=
TTITLE0=High Heeled Sneakers
TTITLE1=Whiskey And Women
TTITLE2=Boogie Chillen
TTITLE3=Boogie Chillen Reprise
TTITLE4=Outro
EXTD=
EXTT0=
EXTT1=
EXTT2=
EXTT3=
EXTT4=
PLAYORDER=
